<svg width="24" height="21" viewBox="0 0 24 21" fill="none" xmlns="http://www.w3.org/2000/svg">
<path fill-rule="evenodd" clip-rule="evenodd" d="M13.1321 1.54843C13.1321 0.798158 12.5239 0.189941 11.7736 0.189941C11.0233 0.189941 10.4151 0.798158 10.4151 1.54843V10.0423L7.30022 6.92746C6.7697 6.39693 5.90955 6.39693 5.37902 6.92746C4.8485 7.45798 4.8485 8.31813 5.37902 8.84865L10.813 14.2826C11.3435 14.8131 12.2037 14.8131 12.7342 14.2826L18.1681 8.84865C18.6987 8.31813 18.6987 7.45798 18.1681 6.92746C17.6376 6.39693 16.7775 6.39693 16.247 6.92746L13.1321 10.0423V1.54843ZM0 13.7748V17.8503C0 19.1008 1.0137 20.1145 2.26415 20.1145H21.7358C22.9863 20.1145 24 19.1008 24 17.8503V14.2277C24 13.4774 23.3918 12.8692 22.6415 12.8692C21.8912 12.8692 21.283 13.4774 21.283 14.2277V17.3975H2.71698V13.7748C2.71698 13.0246 2.10876 12.4164 1.35849 12.4164C0.608217 12.4164 0 13.0246 0 13.7748Z" fill="#606060"/>
</svg>
