<svg width="24" height="24" viewBox="0 0 24 24" fill="none" xmlns="http://www.w3.org/2000/svg">
<path d="M22.6948 0H1.30515C0.584336 0 0 0.584336 0 1.30515C0 2.02596 0.584337 2.6103 1.30515 2.6103H22.6948C23.4157 2.6103 24 2.02596 24 1.30515C24 0.584336 23.4157 0 22.6948 0Z" fill="white"/>
<path d="M22.6948 7.12988H1.30515C0.584336 7.12988 0 7.71422 0 8.43503C0 9.15585 0.584337 9.74018 1.30515 9.74018H22.6948C23.4157 9.74018 24 9.15585 24 8.43503C24 7.71422 23.4157 7.12988 22.6948 7.12988Z" fill="white"/>
<path d="M22.6948 14.2603H1.30515C0.584336 14.2603 0 14.8446 0 15.5654C0 16.2862 0.584337 16.8706 1.30515 16.8706H22.6948C23.4157 16.8706 24 16.2862 24 15.5654C24 14.8446 23.4157 14.2603 22.6948 14.2603Z" fill="white"/>
<path d="M12.0591 21.3896H1.30515C0.584336 21.3896 0 21.974 0 22.6948C0 23.4156 0.584337 23.9999 1.30515 23.9999H12.0591C12.7799 23.9999 13.3642 23.4156 13.3642 22.6948C13.3642 21.974 12.7799 21.3896 12.0591 21.3896Z" fill="white"/>
</svg>
