
<svg version="1.0" xmlns="http://www.w3.org/2000/svg"
 width="429.000000pt" height="429.000000pt" viewBox="0 0 429.000000 429.000000"
 preserveAspectRatio="xMidYMid meet">
<metadata>
Created by potrace 1.16, written by Peter Selinger 2001-2019
</metadata>
<g transform="translate(0.000000,429.000000) scale(0.100000,-0.100000)"
fill="#000000" stroke="none">
<path d="M2080 3138 c-10 -23 -59 -133 -109 -242 -49 -110 -88 -204 -85 -208
9 -15 30 -8 128 37 l96 44 96 -44 c98 -45 119 -52 128 -37 7 12 -208 485 -222
490 -7 2 -21 -16 -32 -40z m10 -213 l0 -126 -66 -29 c-36 -17 -70 -30 -74 -30
-4 0 19 60 52 133 33 72 64 142 69 155 5 12 11 22 14 22 3 0 5 -56 5 -125z
m120 -34 c37 -83 64 -151 60 -151 -5 0 -38 13 -74 30 l-66 29 0 127 c0 70 3
125 6 121 4 -3 37 -74 74 -156z"/>
<path d="M1866 3036 c-168 -70 -300 -208 -361 -379 -33 -92 -39 -133 -20 -141
9 -3 17 0 19 7 62 206 95 267 195 359 67 62 131 102 205 128 49 18 68 42 36
47 -8 2 -41 -8 -74 -21z"/>
<path d="M2266 3051 c-10 -15 2 -31 21 -31 9 0 51 -17 92 -37 55 -27 97 -59
152 -113 89 -88 129 -155 162 -268 13 -46 27 -83 31 -83 26 -1 27 10 12 71
-49 192 -178 350 -351 431 -75 35 -111 44 -119 30z"/>
<path d="M3577 2683 c-12 -11 -8 -931 3 -938 6 -4 17 -1 25 5 12 10 15 51 15
224 0 184 3 216 19 251 37 81 111 125 208 125 77 0 121 -24 151 -80 21 -42 22
-55 22 -281 0 -212 2 -238 17 -243 9 -4 20 -3 25 2 5 5 8 120 6 258 -3 237 -4
251 -26 292 -27 51 -67 78 -141 93 -101 21 -217 -21 -261 -94 l-20 -32 0 201
c0 142 -3 203 -12 212 -14 14 -22 15 -31 5z"/>
<path d="M357 2386 c-97 -27 -142 -80 -142 -166 0 -101 50 -141 220 -180 114
-26 157 -52 169 -103 14 -56 -11 -103 -71 -129 -70 -31 -182 -22 -264 20 -73
38 -81 39 -77 10 4 -32 86 -74 169 -88 112 -19 226 13 274 78 15 20 20 43 20
89 0 52 -4 66 -25 89 -33 35 -87 59 -194 84 -113 26 -144 43 -163 87 -19 47
-10 92 25 126 36 34 72 47 136 47 62 0 106 -13 159 -48 29 -20 41 -22 50 -13
18 18 -3 43 -64 73 -67 33 -155 43 -222 24z"/>
<path d="M1028 2386 c-137 -38 -210 -149 -211 -321 0 -78 3 -98 28 -153 50
-112 136 -165 270 -166 113 -1 235 48 235 95 0 26 -11 24 -76 -12 -101 -57
-241 -51 -319 14 -46 37 -85 117 -85 174 l0 43 248 2 247 3 -2 68 c-4 110 -52
195 -134 237 -48 25 -143 33 -201 16z m199 -68 c47 -31 83 -97 91 -164 l5 -44
-228 0 -228 0 7 41 c12 77 65 150 131 181 61 28 168 22 222 -14z"/>
<path d="M1481 2386 c-10 -11 15 -79 123 -331 l134 -316 -44 -97 c-24 -53 -44
-105 -44 -114 0 -24 19 -33 35 -17 12 12 325 735 360 831 12 31 12 38 -1 49
-10 8 -18 9 -25 2 -6 -6 -51 -109 -100 -229 -169 -410 -150 -370 -164 -343 -7
13 -61 143 -120 289 -60 146 -112 271 -118 278 -12 16 -22 15 -36 -2z"/>
<path d="M2161 2386 c-10 -11 15 -79 123 -331 l134 -316 -44 -97 c-24 -53 -44
-105 -44 -114 0 -24 19 -33 35 -17 12 12 325 735 360 831 12 31 12 38 -1 49
-10 8 -18 9 -25 2 -6 -6 -51 -109 -100 -229 -169 -410 -150 -370 -164 -343 -7
13 -61 143 -120 289 -60 146 -112 271 -118 278 -12 16 -22 15 -36 -2z"/>
<path d="M3034 2386 c-83 -19 -144 -51 -144 -76 0 -27 16 -25 86 7 80 37 195
43 241 14 50 -31 66 -64 71 -145 l4 -73 -120 -6 c-200 -11 -270 -35 -299 -104
-22 -54 -13 -132 20 -176 82 -108 279 -109 364 -2 l28 35 5 -57 c4 -50 8 -58
25 -58 19 0 20 7 20 250 0 138 -3 262 -7 277 -10 34 -53 85 -87 103 -42 21
-138 26 -207 11z m256 -368 c0 -94 -49 -176 -124 -212 -74 -35 -191 -10 -229
48 -23 35 -30 96 -15 125 32 60 92 78 261 80 l107 1 0 -42z"/>
</g>
</svg>
